<?xml version="1.0" encoding="UTF-8"?><svg id="uuid-290a390b-312f-4526-9876-bd8a53d3bddd" xmlns="http://www.w3.org/2000/svg" viewBox="0 0 100 73.27"><defs><style>.uuid-6844560e-a51c-4039-bf7a-ced31462ed26{fill:#fff;}</style></defs><g id="uuid-87fd779e-f395-4698-9916-db919e441c17"><path id="uuid-a086534d-cb55-4f60-9e03-32d041e46b3e" class="uuid-6844560e-a51c-4039-bf7a-ced31462ed26" d="m99.65,27.22c1.35-14.14-1.56-24.47-1.69-24.91l-.67-2.31-2.18,1.01c-13.74,6.37-23.47,20.64-28.17,41.27-2.29,10.06-2.87,19.23-2.99,24.52-.77,0-1.53-.01-2.31-.01-1.16,0-2.29,0-3.41.02-1.27-7.88-4.72-24.77-12.68-38.33-4.36-7.42-10.45-11.15-17.18-10.49-10.66,1.05-20.95,12.93-27.52,31.8l-.88,2.52,2.66.22c.65.05,13.06.91,25.83-6.75,2.3,2.6,7.92,9.44,14.73,21.15.08.15.17.31.26.46-8.11.59-13.41,1.56-13.41,2.65,0,1.8,14.14,3.25,31.59,3.25s31.59-1.45,31.59-3.25c0-.98-4.24-1.86-10.93-2.45.2-.22.4-.43.59-.66,11.84-13.78,15.72-28.77,16.75-39.7h0Zm-51.59,39.88c-.03-.06-.07-.13-.1-.18-7.18-12.72-13.22-20.24-16.01-23.45,1.75-1.27,8.41-6.6,11.87-9.65,6.11,11.92,9.06,25.9,10.26,33.06-2.1.06-4.12.13-6.03.22Zm29.3-.18c-.08.1-.18.19-.27.28-2.77-.16-5.79-.28-8.99-.35.34-12.58-.07-38.34,23.02-51.15,1.67,8.52,8.68,27.7-13.76,51.22h0Z"/></g></svg>