<svg width="16" height="16" viewBox="0 0 16 16" fill="none" xmlns="http://www.w3.org/2000/svg">
<g clip-path="url(#clip0_31_224)">
<path d="M9.68995 3.38004C9.70995 3.48004 9.65995 3.47004 9.64995 3.55004C9.61995 3.81004 9.66995 3.78004 9.85995 3.70004C9.97995 3.65004 10.25 3.70004 10.18 3.54004H10.2C10.18 3.43004 10.1 3.48004 10.06 3.42004C10.01 3.36004 9.99995 3.30004 9.95995 3.24004C9.85995 3.09004 9.79995 3.07004 9.79995 2.86004C9.70995 2.86004 9.62995 2.84004 9.55995 2.79004C9.42995 2.93004 9.49995 3.02004 9.57995 3.16004C9.61995 3.23004 9.68995 3.30004 9.69995 3.38004H9.68995Z" fill="white"/>
<path d="M9.52996 3.19993C9.52996 3.19993 9.41996 3.18993 9.36996 3.19993L9.34996 3.17993C9.34996 3.17993 9.25996 3.24993 9.22996 3.30993C9.19996 3.38993 9.19996 3.46993 9.20996 3.55993C9.49996 3.65993 9.53996 3.43993 9.52996 3.20993V3.19993Z" fill="white"/>
<path d="M14.03 10.3801C13.97 10.4101 13.96 10.5001 13.9 10.5401C13.83 10.5901 13.78 10.5801 13.72 10.6201C13.56 10.7101 13.55 10.7301 13.58 10.9401L13.66 10.8601C13.63 11.0001 13.24 11.4701 13.5 11.5601C13.68 11.6201 13.99 11.1301 14.07 11.0001C14.15 10.8701 14.38 10.2101 14.03 10.3801Z" fill="white"/>
<path d="M8.86995 2.02994C8.80995 1.94994 8.48995 1.92994 8.41995 1.95994L8.45995 1.93994C8.33995 1.98994 8.05995 1.86994 8.09995 2.09994C8.12995 2.26994 8.39995 2.32994 8.53995 2.32994C8.66995 2.32994 8.99995 2.20994 8.86995 2.03994V2.02994Z" fill="white"/>
<path d="M8 0C3.59 0 0 3.59 0 8C0 12.41 3.59 16 8 16C12.41 16 16 12.41 16 8C16 3.59 12.41 0 8 0ZM12.57 4.16C12.71 4.04 12.8 4.26 12.89 4.36L12.85 4.3C12.85 4.3 12.87 4.33 12.91 4.32C12.93 4.02 12.99 4.03 13.15 4.25C13.24 4.37 13.51 4.53 13.43 4.68C13.24 4.72 13.23 4.47 12.99 4.56C12.81 4.63 12.76 4.85 12.61 4.65C12.55 4.57 12.48 4.25 12.57 4.17V4.16ZM13.33 6.05C13.42 6.07 13.52 6.25 13.58 6.34C13.68 6.47 13.7 6.58 13.77 6.74C13.83 6.88 13.91 7.05 13.99 7.18C14.07 7.32 14.24 7.4 14.15 7.58C13.89 7.52 13.78 7.02 13.66 6.82C13.53 6.61 13.52 6.23 13.34 6.06L13.32 6.04C13.32 6.04 13.34 6.05 13.34 6.06L13.33 6.05ZM13.99 4.74C13.96 4.5 13.84 4.47 13.71 4.34C13.71 4.36 13.71 4.38 13.71 4.4L13.69 4.32C13.69 4.32 13.7 4.33 13.71 4.34C13.7 4.26 13.66 4.17 13.69 4.06C13.87 4.01 14 4.38 14.03 4.52C14.1 4.55 14.13 4.58 14.17 4.64C14.23 4.72 14.19 4.71 14.23 4.81C14.27 4.92 14.38 5.08 14.27 5.17C14.08 5.08 14.01 4.94 13.99 4.75V4.74ZM4.15 2.01C4.11 2.18 4.12 2.05 4.03 2.11C4 2.13 3.94 2.11 3.91 2.11C3.86 2.13 3.91 2.2 3.85 2.22C3.74 2.27 3.57 2.27 3.44 2.28C3.47 2.25 3.5 2.23 3.54 2.2C3.63 2.17 3.72 2.12 3.79 2.12C3.88 1.92 3.93 2.03 4.07 1.92C4.09 1.9 4.12 1.84 4.13 1.78C4.13 1.78 4.14 1.78 4.15 1.77C4.14 1.83 4.17 1.9 4.15 2V2.01ZM4.69 1.59C4.62 1.59 4.55 1.59 4.48 1.59C4.74 1.45 5.01 1.32 5.28 1.21C5.24 1.33 5.24 1.28 5.03 1.33C4.86 1.37 4.88 1.42 4.87 1.58C4.85 1.77 4.85 1.7 4.74 1.82C4.65 1.92 4.67 1.97 4.61 2.08C4.57 2.17 4.47 2.24 4.43 2.34C4.24 2.38 4.26 2.13 4.41 2.09C4.16 2.03 4.63 1.7 4.7 1.61L4.69 1.59ZM8 15.31C3.96 15.31 0.69 12.04 0.69 8C0.69 7.12 0.85 6.27 1.13 5.48C1.09 5.76 1.11 6.11 1.13 6.38C1.15 6.54 1.17 6.7 1.19 6.86C1.2 6.98 1.19 7.21 1.27 7.3C1.31 7.34 1.3 7.35 1.37 7.36C1.4 7.17 1.26 7 1.3 6.8C1.38 6.89 1.39 7.11 1.42 7.24C1.47 7.43 1.54 7.52 1.64 7.66C1.72 7.78 1.76 7.91 1.88 8.01C2.05 8.15 2.12 8.07 2.32 8.09C2.37 8.22 2.49 8.26 2.58 8.35C2.69 8.46 2.79 8.52 2.9 8.63C2.99 8.73 3.07 8.82 3.18 8.92C3.33 9.05 3.4 9.13 3.39 9.32C3.39 9.47 3.34 9.62 3.35 9.78C3.35 9.95 3.32 10.05 3.29 10.22C3.24 10.57 3.38 10.82 3.57 11.08C3.72 11.28 3.89 11.59 4.13 11.71C4.29 11.79 4.39 11.77 4.49 11.93C4.56 12.04 4.54 12.35 4.59 12.47C4.85 13.09 5.02 13.58 5.46 14.15C5.62 14.36 6 14.65 6.25 14.69C6.25 14.41 5.74 14.28 5.69 13.95C5.69 13.9 5.67 13.72 5.69 13.67C5.75 13.55 5.79 13.64 5.89 13.59C6.13 13.48 5.92 13.43 5.85 13.25C6.24 13.2 6.2 12.9 6.33 12.58C6.4 12.41 6.44 12.35 6.61 12.3C6.76 12.25 6.93 12.27 7.01 12.12C7.16 11.82 6.85 11.42 7.05 11.16C7.15 11.03 7.36 11.02 7.33 10.8C7.31 10.67 7.11 10.52 7 10.46C6.75 10.32 6.4 10.3 6.12 10.27C6.03 10.27 5.73 10.29 5.68 10.21C5.63 10.13 5.78 9.92 5.77 9.82C5.6 9.72 5.43 9.61 5.25 9.53C5.16 9.49 5.05 9.48 4.97 9.43C4.88 9.37 4.87 9.27 4.8 9.2C4.61 9.01 3.6 9.16 3.62 8.86C3.4 8.82 3.13 8.82 3.08 8.58C3.03 8.36 3.13 7.96 2.74 8.12C2.64 8.02 2.89 7.31 2.62 7.46C2.53 7.51 2.54 7.74 2.44 7.82C2.3 7.93 2.2 7.86 2.13 7.73C2.01 7.52 2 7.05 2.09 6.83C2.24 6.44 2.59 6.81 2.87 6.79C2.87 6.74 2.9 6.71 2.9 6.66C3.28 6.58 3.12 7.28 3.38 7.34C3.75 7.42 3.33 6.69 3.38 6.52C3.47 6.18 3.92 6.29 3.98 5.92C4.01 5.75 3.93 5.61 4.08 5.5C4.22 5.4 4.4 5.43 4.54 5.28C4.6 5.22 4.64 5.07 4.7 5.03C4.81 4.96 4.93 5.01 4.92 5.15C5.1 5.19 5.46 4.87 5.44 4.69C5.32 4.69 5.26 4.94 5.14 4.77C5.11 4.72 5.17 4.6 5.14 4.55C5.12 4.5 5.02 4.47 4.98 4.45C5.08 4.36 5.29 4.39 5.42 4.33C5.5 4.3 5.76 4.08 5.76 4.27C5.76 4.39 5.52 4.46 5.5 4.55C5.45 4.78 5.69 4.71 5.82 4.75C5.97 4.79 6.09 4.95 6.23 4.8C6.39 4.62 6.16 4.57 6.1 4.43C6.04 4.27 6.12 4.13 6.03 3.96C5.95 3.81 5.81 3.82 5.73 3.72C5.68 3.66 5.7 3.54 5.66 3.47C5.61 3.39 5.53 3.33 5.44 3.28C5.26 3.18 5.1 3.17 5.04 3.41C4.96 3.27 5.16 3.2 5.08 3.06C5.06 3.02 4.82 2.91 4.78 2.9C4.56 2.85 4.34 3.22 4.3 3.44C4.29 3.51 4.36 3.54 4.33 3.63C4.31 3.68 4.23 3.69 4.2 3.72C4.11 3.84 4.12 3.95 4.06 4.08C4 4.2 3.91 4.29 3.82 4.12C3.76 4 3.87 3.82 3.92 3.72C3.78 3.63 3.65 3.67 3.53 3.55C3.42 3.44 3.37 3.27 3.44 3.14C3.6 2.84 4.04 2.81 4.22 2.55C4.33 2.61 4.27 2.74 4.2 2.81C4.28 2.81 4.47 2.84 4.5 2.73C4.53 2.63 4.33 2.59 4.36 2.51C4.38 2.44 4.57 2.47 4.62 2.41C4.69 2.32 4.56 2.21 4.76 2.21C4.75 2.16 4.76 2.09 4.75 2.04C4.88 2.01 5.03 2.09 5.14 2.14C5.24 2.51 4.43 2.57 4.98 2.81C5.03 2.83 5.12 2.85 5.16 2.89C5.21 2.93 5.19 3.03 5.25 3.06C5.41 3.13 5.47 2.9 5.48 2.78C5.52 2.8 5.59 2.8 5.63 2.81C5.67 2.67 5.27 2.3 5.61 2.44C5.7 2.48 5.72 2.61 5.84 2.6C5.99 2.59 5.93 2.47 5.96 2.36C5.89 2.32 5.69 2.35 5.66 2.3C5.57 2.19 5.76 2.11 5.72 2C5.69 1.9 5.25 1.7 5.18 1.74C5.12 1.69 5.12 1.59 5.1 1.52C5.21 1.47 5.27 1.56 5.36 1.54C5.43 1.53 5.51 1.44 5.57 1.4C5.71 1.3 5.87 1.18 6.03 1.12C6.17 1.07 6.47 1 6.55 1.17C6.61 1.29 6.51 1.32 6.5 1.41C6.49 1.53 6.5 1.56 6.56 1.67C6.52 1.65 6.44 1.66 6.41 1.64C6.37 1.81 6.64 1.76 6.53 1.96C6.5 2.01 6.4 1.99 6.35 2.06C6.31 2.12 6.31 2.25 6.32 2.32C6.34 2.44 6.43 2.6 6.52 2.69C6.66 2.84 6.79 2.75 6.95 2.84C7.08 2.91 7.11 3.09 7.29 2.97C7.44 2.86 7.38 2.67 7.39 2.51C7.41 2.12 7.78 2.1 7.95 1.82C7.98 1.77 7.92 1.69 7.97 1.65C8.01 1.62 8.12 1.65 8.17 1.65C8.3 1.62 8.38 1.58 8.35 1.41C8.31 1.2 8.22 1.34 8.07 1.27C7.98 1.23 7.89 1.07 8.05 1.05C8.05 1.02 8.06 0.95 8.05 0.92C8 0.89 7.89 0.85 7.86 0.79C7.85 0.77 7.84 0.74 7.84 0.72C7.88 0.72 7.93 0.72 7.97 0.72C9.39 0.72 10.71 1.12 11.84 1.82C11.82 1.88 11.82 1.96 11.81 2.02C11.78 2.19 11.66 2.29 11.61 2.05C11.65 2.05 11.71 2 11.76 2C11.8 1.87 11.27 1.58 11.12 1.54C10.77 1.44 10.51 1.47 10.42 1.82C10.37 2.01 9.98 2.49 10.12 2.68C10.29 2.94 10.77 2.47 10.82 2.92C10.83 3.02 10.77 3.09 10.78 3.2C11.06 3.35 11.09 2.9 11.08 2.72C11.06 2.49 10.89 2.26 11.08 2.06C11.26 2.29 10.98 2.55 11.38 2.65C11.83 2.76 11.33 2.79 11.48 3.07C11.33 3.04 11.32 3.17 11.32 3.29C11.07 3.34 10.89 3.39 10.71 3.19C10.49 2.95 10.45 3.15 10.66 3.31C10.45 3.37 10.33 3.55 10.21 3.72C10.11 3.86 10.15 3.83 9.97 3.88C9.86 3.91 9.72 3.89 9.75 4.06C9.88 4.1 10 4.17 9.99 4.32C9.97 4.55 9.79 4.45 9.63 4.44C9.45 4.44 9.34 4.5 9.37 4.7C9.37 4.75 9.45 4.83 9.47 4.88C9.5 4.96 9.47 5.02 9.54 5.1C9.73 5.37 10.14 5.24 10.3 5.01C10.51 4.7 10.46 4.47 10.9 4.48C11.1 4.48 11.28 4.62 11.44 4.78C11.68 5.03 11.41 4.99 11.36 5.21C11.56 5.33 11.83 4.95 11.75 4.79C11.64 4.58 11.28 4.47 11.24 4.21C11.5 4.23 11.77 4.74 11.94 4.91C12.13 5.1 12.41 5.49 12.7 5.47C12.6 5.22 12.16 5.08 12.18 4.75C12.55 4.68 12.68 5.07 12.92 5.18C13.27 5.34 13.19 5.71 12.8 5.75C12.6 5.77 12.51 5.72 12.35 5.63C12.28 5.6 12.23 5.54 12.15 5.55C12.03 5.55 12.09 5.63 11.99 5.67C11.84 5.73 11.67 5.57 11.53 5.53C11.48 5.51 11.33 5.53 11.29 5.5C11.17 5.42 11.27 5.37 11.21 5.28C11.05 5.04 10.54 5.19 10.31 5.26C10.16 5.31 10 5.26 9.84 5.3C9.68 5.33 9.61 5.45 9.51 5.58C9.41 5.72 9.44 5.87 9.35 6C9.27 6.11 9.13 6.17 9.05 6.31C8.86 6.63 8.77 6.77 8.79 7.12C8.8 7.43 8.65 7.59 8.87 7.86C9.03 8.07 9.22 8.32 9.44 8.48C9.57 8.57 9.71 8.56 9.84 8.62C10.03 8.7 9.99 8.71 10.16 8.62C10.31 8.54 10.4 8.55 10.58 8.54C10.75 8.53 10.85 8.41 11 8.38C10.96 8.57 11.15 8.56 11.25 8.67C11.38 8.83 11.28 8.9 11.26 9.06C11.24 9.34 11.52 9.56 11.52 9.86C11.52 10.15 11.39 10.45 11.32 10.72C11.24 11.02 11.36 11.3 11.36 11.62C11.36 11.84 11.36 12.05 11.36 12.26C11.75 12.42 11.89 12.39 12.2 12.1C12.3 12.01 12.45 11.88 12.53 11.76C12.63 11.61 12.57 11.43 12.75 11.38C12.96 11.31 13.02 11.49 13.03 11.18C13.03 10.94 13.04 10.97 13.21 10.83C13.47 10.62 13.52 10.37 13.55 10.05C13.59 9.61 13.73 9.19 14.08 8.89C14.27 8.73 14.38 8.65 14.44 8.38C14.48 8.17 14.56 7.94 14.54 7.72C14.46 7.75 14.46 7.85 14.38 7.89C14.28 7.94 14.11 7.89 14.13 7.78C14.43 7.72 14.57 7.49 14.71 7.24C14.85 6.99 15.09 6.73 14.93 6.44C15 6.49 15.07 6.52 15.12 6.55C15.22 7.03 15.27 7.52 15.27 8.03C15.27 12.07 12 15.34 7.96 15.34L8 15.31Z" fill="white"/>
</g>
<defs>
<clipPath id="clip0_31_224">
<rect width="16" height="16" fill="white"/>
</clipPath>
</defs>
</svg>
