<?xml version="1.0" encoding="UTF-8"?><svg id="uuid-871e3ca0-4086-4076-8d0b-4965cc8aedd4" xmlns="http://www.w3.org/2000/svg" viewBox="0 0 64.36 47.15"><defs><style>.uuid-9e3349a7-430c-4e9b-8fdd-2be991979a99{fill:#fff;}</style></defs><g id="uuid-896c43fb-0bd9-4442-bbe0-b5d1bbde55f9"><path class="uuid-9e3349a7-430c-4e9b-8fdd-2be991979a99" d="m64.13,17.52c.87-9.1-1.01-15.75-1.09-16.03l-.43-1.49-1.4.65c-8.84,4.09-15.1,13.28-18.13,26.55-1.47,6.47-1.85,12.37-1.92,15.78-.49,0-.99,0-1.49,0-.74,0-1.47,0-2.19.01-.81-5.07-3.04-15.94-8.16-24.67-2.8-4.77-6.73-7.17-11.05-6.75-6.86.67-13.48,8.32-17.71,20.47l-.56,1.62,1.71.14c.42.03,8.4.58,16.62-4.34,1.48,1.67,5.1,6.07,9.48,13.61.06.1.11.2.17.29-5.22.38-8.63,1-8.63,1.71,0,1.15,9.1,2.09,20.33,2.09s20.33-.93,20.33-2.09c0-.63-2.73-1.19-7.03-1.58.12-.14.26-.28.38-.42,7.62-8.87,10.11-18.51,10.78-25.55h0Zm-33.2,25.66s-.04-.08-.06-.12c-4.62-8.18-8.5-13.03-10.3-15.09,1.13-.82,5.41-4.25,7.64-6.21,3.93,7.67,5.83,16.66,6.6,21.27-1.35.04-2.65.08-3.88.14Zm18.86-.12c-.06.06-.12.12-.18.18-1.78-.1-3.73-.18-5.78-.22.22-8.1-.05-24.67,14.81-32.92,1.08,5.48,5.59,17.82-8.85,32.96h0Z"/></g></svg>